#!OML:ASF H:\Dans Jumps\Project 1\Capture day 1\Session 1\subject.ASF
:FULLY-SPECIFIED
:DEGREES
343
root -0.0859422 19.8506 -11.3891 13.8733 4.52911 1.5139
lowerback 8.49421 -0.833252 -3.63119
upperback 3.89917 -1.34202 2.08462
thorax -0.58079 -0.727509 4.321
lowerneck -13.1327 -0.819873 -1.87596
upperneck 22.6657 -0.833644 0.548138
head 9.3081 -0.484444 0.406799
rclavicle -1.27222e-014 2.62396e-014
rhumerus -57.1916 10.2977 -76.1738
rradius 98.9142
rwrist 17.2666
rhand -26.4255 -28.1593
rfingers 7.12502
rthumb 0.134794 -58.139
lclavicle -1.27222e-014 2.62396e-014
lhumerus -70.433 -20.001 88.2164
lradius 102.997
lwrist 46.9827
lhand -35.9388 -17.8133
lfingers 7.12502
lthumb -9.05079 11.9725
rfemur -15.6685 -8.27628 16.7882
rtibia 21.4019
rfoot 19.2516 -11.2554
rtoes 19.0173
lfemur -22.8226 10.3805 -18.7961
ltibia 28.3694
lfoot 28.1197 -4.22416
ltoes 0.975129
344
root -0.0900439 20.1897 -11.2416 14.1397 4.80552 1.33481
lowerback 7.23482 -0.992778 -3.62417
upperback 3.85904 -1.51711 2.14871
thorax 0.0921798 -0.831059 4.36531
lowerneck -12.7899 -0.826591 -1.8481
upperneck 23.1532 -0.890048 0.679477
head 9.41501 -0.496112 0.442095
rclavicle -1.61016e-014 2.38542e-015
rhumerus -57.9219 10.2096 -76.2531
rradius 98.3299
rwrist 17.1367
rhand -26.3516 -27.9635
rfingers 7.12502
rthumb 0.206182 -57.9431
lclavicle -1.61016e-014 2.38542e-015
lhumerus -72.0791 -19.9434 88.6738
lradius 102.781
lwrist 46.0584
lhand -36.593 -18.0444
lfingers 7.12502
lthumb -9.68194 11.7131
rfemur -15.1049 -7.97305 17.013
rtibia 19.856
rfoot 21.4504 -14.0671
rtoes 23.4033
lfemur -22.6659 9.77748 -18.3283
ltibia 27.2548
lfoot 29.8532 -3.62047
ltoes 2.90956
345
root -0.0944396 20.5203 -11.1107 14.4543 5.08072 1.13854
lowerback 6.12766 -1.1471 -3.60325
upperback 3.80929 -1.69024 2.21787
thorax 0.673419 -0.931044 4.40629
lowerneck -12.542 -0.844235 -1.82393
upperneck 23.5803 -0.959026 0.808231
head 9.51945 -0.513617 0.475559
rclavicle -7.7526e-015 7.95139e-016
rhumerus -58.4127 9.96414 -76.3313
rradius 97.5184
rwrist 17.0086
rhand -26.1764 -27.8193
rfingers 7.12502
rthumb 0.375345 -57.7987
lclavicle -7.7526e-015 7.95139e-016
lhumerus -73.4895 -19.7081 89.1275
lradius 102.265
lwrist 45.3278
lhand -37.2036 -18.2231
lfingers 7.12502
lthumb -10.271 11.5061
rfemur -15.0689 -8.05316 17.3706
rtibia 19.2605
rfoot 22.6744 -15.8621
rtoes 26.1578
lfemur -22.9106 9.23167 -17.9026
ltibia 26.8161
lfoot 30.668 -3.2606
ltoes 4.31112
346
root -0.0988483 20.8405 -10.998 14.7673 5.33675 0.950386
lowerback 5.23413 -1.28896 -3.58056
upperback 3.7646 -1.85397 2.27895
thorax 1.14215 -1.02351 4.43926
lowerneck -12.3814 -0.868576 -1.79632
upperneck 23.9485 -1.03313 0.921309
head 9.62027 -0.534325 0.502284
rclavicle 2.06736e-014 -1.82882e-014
rhumerus -58.6399 9.55416 -76.413
rradius 96.4765
rwrist 16.9017
rhand -25.8688 -27.7846
rfingers 7.12502
rthumb 0.67249 -57.7633
lclavicle 2.06736e-014 -1.82882e-014
lhumerus -74.6103 -19.3082 89.5454
lradius 101.464
lwrist 44.9828
lhand -37.7194 -18.3135
lfingers 7.12502
lthumb -10.7686 11.3904
rfemur -15.4778 -8.49543 17.8173
rtibia 19.549
rfoot 23.3358 -16.5607
rtoes 27.5613
lfemur -23.4805 8.753 -17.5389
ltibia 26.9871
lfoot 30.9795 -3.16356
ltoes 5.2788
347
root -0.103012 21.1481 -10.9038 15.0205 5.53717 0.786448
lowerback 4.61569 -1.40756 -3.5678
upperback 3.73979 -1.99526 2.32104
thorax 1.47697 -1.10183 4.46217
lowerneck -12.2895 -0.888017 -1.75127
upperneck 24.2552 -1.09537 1.00232
head 9.71251 -0.551009 0.516153
rclavicle 1.49089e-014 2.38542e-015
rhumerus -58.6014 8.99616 -76.5063
rradius 95.2021
rwrist 16.833
rhand -25.533 -27.808
rfingers 7.12502
rthumb 0.996782 -57.7854
lclavicle 1.49089e-014 2.38542e-015
lhumerus -75.4183 -18.7489 89.9017
lradius 100.401
lwrist 45.1497
lhand -38.037 -18.3369
lfingers 7.12502
lthumb -11.075 11.3509
rfemur -16.2082 -9.15465 18.2926
rtibia 20.5774
rfoot 23.7892 -16.3711
rtoes 27.9591
lfemur -24.2666 8.36128 -17.251
ltibia 27.6657
lfoot 31.1075 -3.29718
ltoes 5.89388
348
root -0.106455 21.4432 -10.8274 15.1626 5.64949 0.656058
lowerback 4.31131 -1.49244 -3.57273
upperback 3.75201 -2.10051 2.33802
thorax 1.67148 -1.15956 4.47547
lowerneck -12.2643 -0.891527 -1.69647
upperneck 24.5157 -1.12786 1.04932
head 9.80079 -0.556418 0.519835
rclavicle -3.98563e-014 2.42517e-014
rhumerus -58.3131 8.31088 -76.6095
rradius 93.7157
rwrist 16.8102
rhand -25.223 -27.8659
rfingers 7.12502
rthumb 1.29615 -57.8417
lclavicle -3.98563e-014 2.42517e-014
lhumerus -75.8863 -18.0761 90.177
lradius 99.0889
lwrist 45.8766
lhand -38.071 -18.3826
lfingers 7.12502
lthumb -11.1078 11.3035
rfemur -17.1335 -9.86476 18.7371
rtibia 22.1856
rfoot 24.274 -15.5937
rtoes 27.85
lfemur -25.1549 8.09289 -17.0545
ltibia 28.7432
lfoot 31.2507 -3.58196
ltoes 6.4975
349
root -0.108788 21.7264 -10.7663 15.157 5.64822 0.56611
lowerback 4.33539 -1.53473 -3.60586
upperback 3.81244 -2.1581 2.3271
thorax 1.72776 -1.19139 4.48381
lowerneck -12.2951 -0.877741 -1.63695
upperneck 24.7334 -1.12709 1.06071
head 9.88415 -0.549702 0.514033
rclavicle 3.48867e-014 -1.05356e-014
rhumerus -57.8121 7.52489 -76.7191
rradius 92.0514
rwrist 16.8252
rhand -24.9867 -27.9072
rfingers 7.12502
rthumb 1.52446 -57.8815
lclavicle 3.48867e-014 -1.05356e-014
lhumerus -76.0228 -17.3366 90.3783
lradius 97.5403
lwrist 47.0795
lhand -37.8463 -18.4353
lfingers 7.12502
lthumb -10.891 11.2623
rfemur -18.1444 -10.5039 19.1002
rtibia 24.2291
rfoot 24.8741 -14.5262
rtoes 27.8828
lfemur -26.0348 7.98955 -16.9658
ltibia 30.1116
lfoot 31.3729 -3.9097
ltoes 7.15779
350
root -0.109672 21.9987 -10.7178 14.9939 5.52294 0.507318
lowerback 4.65368 -1.52983 -3.66059
upperback 3.9362 -2.16108 2.2902
thorax 1.67962 -1.1948 4.48471
lowerneck -12.3875 -0.845627 -1.56902
upperneck 24.9059 -1.09086 1.03162
head 9.96259 -0.530159 0.496639
rclavicle -3.77691e-014 -2.98177e-015
rhumerus -57.1189 6.65845 -76.8293
rradius 90.2403
rwrist 16.8703
rhand -24.8688 -27.8916
rfingers 7.12502
rthumb 1.6383 -57.8651
lclavicle -3.77691e-014 -2.98177e-015
lhumerus -75.8389 -16.5834 90.5172
lradius 95.7853
lwrist 48.5969
lhand -37.3957 -18.4946
lfingers 7.12502
lthumb -10.4564 11.2253
rfemur -19.1682 -11.0171 19.3663
rtibia 26.5921
rfoot 25.4641 -13.332
rtoes 28.1552
lfemur -26.8338 8.0585 -16.9735
ltibia 31.6766
lfoot 31.3345 -4.18416
ltoes 7.67451
